<svg xmlns="http://www.w3.org/2000/svg" viewBox="0 0 24 24" fill="currentColor"><path d="M18.6 6.62c-1.44 0-2.8.56-3.77 1.53L12 10.66 10.48 12h.01L7.8 14.48C7.16 15.16 6.23 15.5 5.4 15.5c-1.84 0-3.5-1.66-3.5-3.5s1.66-3.5 3.5-3.5c.78 0 1.53.26 2.12.73L7 10.67c-.6-.41-1.33-.67-2.1-.67C3.14 10 2 11.14 2 12s1.14 2 2.9 2c.76 0 1.47-.3 2.01-.8l5.26-4.47c.78-.66 1.76-1.03 2.83-1.03 2.13 0 3.9 1.77 3.9 3.9S17.13 15.5 15 15.5c-.77 0-1.5-.25-2.1-.68l.02.02L11.24 13.5l-1.37 1.17.94.81c.77.61 1.73.97 2.79.97C15.97 16.45 18 14.42 18 12s-2.03-4.45-4.4-4.45z"/></svg>
